<svg xmlns="http://www.w3.org/2000/svg" width="1200" height="630" viewBox="0 0 1200 630">
  <defs>
    <linearGradient id="bg" x1="0" y1="0" x2="1" y2="1">
      <stop offset="0" stop-color="#0b1220"/>
      <stop offset=".7" stop-color="#0f2a43"/>
      <stop offset="1" stop-color="#134a75"/>
    </linearGradient>
    <linearGradient id="dr" x1="0" y1="0" x2="1" y2="1">
      <stop offset="0" stop-color="#38bdf8"/>
      <stop offset="1" stop-color="#0b72d7"/>
    </linearGradient>
  </defs>
  <rect width="1200" height="630" fill="url(#bg)"/>
  <g transform="translate(90,150) scale(6.2)">
    <path fill="url(#dr)" d="M16 2s10 10.4 10 17a10 10 0 0 1-20 0C6 12.4 16 2 16 2z"/>
    <path fill="#fff" d="M11.2 20.4c2.6 2.4 7 2.3 9.4-.4l1.5 1.4c-3.2 3.5-8.9 3.6-12.3.5z"/>
    <path fill="#fff" d="M20.8 13.6c-2.6-2.4-7-2.3-9.4.4l-1.5-1.4c3.2-3.5 8.9-3.6 12.3-.5z"/>
  </g>
  <text x="330" y="255" font-family="Arial, Helvetica, sans-serif" font-size="72" font-weight="800" fill="#ffffff">Supreme Clean</text>
  <text x="330" y="330" font-family="Arial, Helvetica, sans-serif" font-size="44" font-weight="700" letter-spacing="14" fill="#38bdf8">DETAILING</text>
  <text x="330" y="410" font-family="Arial, Helvetica, sans-serif" font-size="30" fill="#c9dcf0">Mobile car detailing in Casa Grande, AZ &amp; the I-10 corridor</text>
  <polygon points="345.0,444.0 348.5,454.1 359.3,454.4 350.7,460.9 353.8,471.1 345.0,465.0 336.2,471.1 339.3,460.9 330.7,454.4 341.5,454.1" fill="#f5b301"/>
  <polygon points="379.0,444.0 382.5,454.1 393.3,454.4 384.7,460.9 387.8,471.1 379.0,465.0 370.2,471.1 373.3,460.9 364.7,454.4 375.5,454.1" fill="#f5b301"/>
  <polygon points="413.0,444.0 416.5,454.1 427.3,454.4 418.7,460.9 421.8,471.1 413.0,465.0 404.2,471.1 407.3,460.9 398.7,454.4 409.5,454.1" fill="#f5b301"/>
  <polygon points="447.0,444.0 450.5,454.1 461.3,454.4 452.7,460.9 455.8,471.1 447.0,465.0 438.2,471.1 441.3,460.9 432.7,454.4 443.5,454.1" fill="#f5b301"/>
  <polygon points="481.0,444.0 484.5,454.1 495.3,454.4 486.7,460.9 489.8,471.1 481.0,465.0 472.2,471.1 475.3,460.9 466.7,454.4 477.5,454.1" fill="#f5b301"/>
  <text x="512" y="470" font-family="Arial, Helvetica, sans-serif" font-size="30" font-weight="700" fill="#f5b301">5.0 · 20 Google reviews</text>
  <text x="330" y="530" font-family="Arial, Helvetica, sans-serif" font-size="30" fill="#ffffff">(520) 840-2452 · We come to you</text>
</svg>
